<svg width="50" height="50" viewBox="0 0 50 50" fill="none" xmlns="http://www.w3.org/2000/svg">
<path d="M47.0312 37.0937C47.0234 37.1367 47.0117 37.1797 47 37.2187C46.9922 37.25 46.9805 37.2812 46.9687 37.3125C46.9609 37.3437 46.9492 37.375 46.9375 37.4062C46.9023 37.4727 46.8594 37.5352 46.8125 37.5937C46.7851 37.6367 46.7539 37.6797 46.7187 37.7187C46.6719 37.7656 46.6172 37.8086 46.5625 37.8437L38.7187 45.7188C38.3203 46.1172 37.6797 46.1172 37.2812 45.7188C36.8828 45.3203 36.8828 44.6797 37.2812 44.2813L43.5625 38L12 38C11.6406 38.0039 11.3047 37.8164 11.1211 37.5039C10.9414 37.1914 10.9414 36.8086 11.1211 36.4961C11.3047 36.1836 11.6406 35.9961 12 36L43.5625 36L37.2812 29.7187C36.8828 29.3203 36.8828 28.6797 37.2812 28.2812C37.6797 27.8828 38.3203 27.8828 38.7187 28.2812L46.5625 36.1562C46.6758 36.2305 46.7695 36.3242 46.8437 36.4375C46.9219 36.5508 46.9726 36.6797 47 36.8125C47.0234 36.9023 47.0351 37 47.0312 37.0937ZM47 13C47 13.5508 46.5508 14 46 14C45.4492 14 45 13.5508 45 13C45 12.4492 45.4492 12 46 12C46.5508 12 47 12.4492 47 13ZM43 13C43 13.5508 42.5508 14 42 14C41.4492 14 41 13.5508 41 13C41 12.4492 41.4492 12 42 12C42.5508 12 43 12.4492 43 13ZM39.0312 13.0937C39.0234 13.1367 39.0117 13.1797 39 13.2187C38.8945 13.6836 38.4766 14.0117 38 14L6.43749 14L12.7187 20.2812C12.9687 20.5234 13.0742 20.8789 13 21.2187C12.9336 21.5937 12.6601 21.8945 12.2969 22C11.9297 22.1055 11.5391 21.9961 11.2812 21.7187L3.43749 13.8437C3.40624 13.8242 3.37499 13.8047 3.34374 13.7812L3.28124 13.7187C3.2578 13.6992 3.23827 13.6797 3.21874 13.6562C3.21874 13.6445 3.21874 13.6367 3.21874 13.625C3.15624 13.5586 3.10546 13.4844 3.06249 13.4062C3.06249 13.3945 3.06249 13.3867 3.06249 13.375C3.05077 13.3555 3.03905 13.332 3.03124 13.3125C3.03124 13.3008 3.03124 13.293 3.03124 13.2812C3.01952 13.25 3.0078 13.2187 2.99999 13.1875C2.98437 13.082 2.98437 12.9805 2.99999 12.875C2.99999 12.8555 2.99999 12.832 2.99999 12.8125C3.01952 12.7266 3.05077 12.6406 3.09374 12.5625C3.16015 12.4297 3.2578 12.3125 3.37499 12.2187L11.2812 4.28125C11.6797 3.88281 12.3203 3.88281 12.7187 4.28125C13.1172 4.67969 13.1172 5.32031 12.7187 5.71875L6.43749 12L38 12C38.2891 11.9883 38.5664 12.1055 38.7617 12.3125C38.9609 12.5234 39.0586 12.8086 39.0312 13.0937ZM8.99999 37C8.99999 37.5508 8.55077 38 7.99999 38C7.44921 38 6.99999 37.5508 6.99999 37C6.99999 36.4492 7.44921 36 7.99999 36C8.55077 36 8.99999 36.4492 8.99999 37ZM4.99999 37C4.99999 37.5508 4.55077 38 3.99999 38C3.44921 38 2.99999 37.5508 2.99999 37C2.99999 36.4492 3.44921 36 3.99999 36C4.55077 36 4.99999 36.4492 4.99999 37Z" fill="#5B5B5B"/>
</svg>
